<?xml version="1.0" encoding="UTF-8"?>
<svg width="14px" height="13px" viewBox="0 0 14 13" version="1.1" xmlns="http://www.w3.org/2000/svg" xmlns:xlink="http://www.w3.org/1999/xlink">
    <!-- Generator: Sketch 52.6 (67491) - http://www.bohemiancoding.com/sketch -->
    <title>form-captcha-icon</title>
    <desc>Created with Sketch.</desc>
    <g id="Page-1" stroke="none" stroke-width="1" fill="none" fill-rule="evenodd">
        <g id="form-captcha-icon">
            <polygon id="Path" fill="#FFFFFF" points="0.5 7.5 13.5 7.5 13.5 12.5 0.5 12.5"></polygon>
            <path d="M13,8 L13,12 L1,12 L1,8 L13,8 Z M14,7 L0,7 L0,13 L14,13 L14,7 Z" id="Shape" fill="#999999" fill-rule="nonzero"></path>
            <polygon id="Path" fill="#676767" fill-rule="nonzero" points="14 0 0 0 0 6 14 6"></polygon>
            <rect id="Rectangle" fill="#676767" x="2" y="9" width="2" height="2"></rect>
            <rect id="Rectangle-Copy" fill="#676767" x="5" y="9" width="2" height="2"></rect>
            <rect id="Rectangle-Copy-2" fill="#676767" x="8" y="9" width="2" height="2"></rect>
            <rect id="Rectangle" fill="#FFFFFF" x="2" y="2" width="2" height="2"></rect>
            <rect id="Rectangle-Copy" fill="#FFFFFF" x="5" y="2" width="2" height="2"></rect>
            <rect id="Rectangle-Copy-2" fill="#FFFFFF" x="8" y="2" width="2" height="2"></rect>
        </g>
    </g>
</svg>