<?xml version="1.0" encoding="UTF-8"?>
<svg width="250px" height="250px" viewBox="0 0 318 318" version="1.1" xmlns="http://www.w3.org/2000/svg" xmlns:xlink="http://www.w3.org/1999/xlink">
    <!-- Generator: Sketch 52.6 (67491) - http://www.bohemiancoding.com/sketch -->
    <title>np_captcha_969369_000000</title>
    <desc>Created with Sketch.</desc>
    <g id="Page-1" stroke="none" stroke-width="1" fill="none" fill-rule="evenodd">
        <g id="np_captcha_969369_000000">
            <rect id="Rectangle" fill="#1A3553" x="0" y="0" width="318" height="318"></rect>
            <path d="M267.5,101 L51.5,101 C49.0137536,101 47,103.013754 47,105.5 L47,195.5 C47,197.986246 49.0137536,200 51.5,200 L267.5,200 C269.986246,200 272,197.986246 272,195.5 L272,105.5 C272,103.013754 269.986246,101 267.5,101 Z M96.5,164 C98.9862464,164 101,166.013754 101,168.5 C101,170.986246 98.9862464,173 96.5,173 L78.5,173 C76.0137536,173 74,170.986246 74,168.5 C74,166.013754 76.0137536,164 78.5,164 L83,164 L83,137 L78.5,137 C76.0137536,137 74,134.986246 74,132.5 C74,130.013754 76.0137536,128 78.5,128 L96.5,128 C98.9862464,128 101,130.013754 101,132.5 C101,134.986246 98.9862464,137 96.5,137 L92,137 L92,164 L96.5,164 Z" id="Shape" fill="#FFFFFF" fill-rule="nonzero"></path>
            <path d="M70.5,55 L250.5,55 C252.986246,55 255,53.2099968 255,51 C255,48.7900032 252.986246,47 250.5,47 L70.5,47 C68.0137536,47 66,48.7900032 66,51 C66,53.2099968 68.0137536,55 70.5,55 Z" id="Path" fill="#FFFFFF"></path>
            <path d="M70.5,82 L250.5,82 C252.986246,82 255,80.2099968 255,78 C255,75.7900032 252.986246,74 250.5,74 L70.5,74 C68.0137536,74 66,75.7900032 66,78 C66,80.2099968 68.0137536,82 70.5,82 Z" id="Path" fill="#FFFFFF"></path>
            <path d="M160.693957,226.168621 L162.142777,224.683638 C163.855049,222.928627 163.855049,220.082271 162.142777,218.316258 C160.430532,216.561247 157.653463,216.561247 155.930457,218.316258 L147.149645,227.316242 C145.437372,229.071253 145.437372,231.917609 147.149645,233.683622 L155.930457,242.683605 C156.797552,243.56111 157.928099,243.999849 159.047716,243.999849 C160.167333,243.999849 161.297796,243.56111 162.154016,242.683605 C163.866289,240.928594 163.866289,238.082237 162.154016,236.316225 L161.067387,235.213734 C167.367655,236.214993 172.219159,241.772346 172.219159,248.500013 C172.219159,255.947391 166.313958,261.999988 159.047941,261.999988 C155.821097,261.999988 152.725756,260.784976 150.310962,258.602458 C148.499923,256.959969 145.723023,257.117476 144.109601,258.98495 C142.496123,260.841193 142.660781,263.687406 144.482779,265.329867 C148.510994,268.98602 153.669616,271 159.047969,271 C171.154532,271 181,260.908787 181,248.500042 C181,236.676224 172.021654,227.057618 160.694266,226.168852 L160.693957,226.168621 Z" id="Path" fill="#FFFFFF"></path>
        </g>
    </g>
</svg>